<svg width="271" height="249" viewBox="0 0 271 249" fill="none" xmlns="http://www.w3.org/2000/svg">
<mask id="path-1-inside-1_990_106" fill="white">
<path d="M270.419 87.4619H264.172V222.226H197.236V249H8.9248L8.9248 161.538H41.9463L41.9463 106.204H0L0 18.7422L82.1074 18.7422V0L270.419 0V87.4619Z"/>
</mask>
<path d="M270.419 87.4619H264.172V222.226H197.236V249H8.9248L8.9248 161.538H41.9463L41.9463 106.204H0L0 18.7422L82.1074 18.7422V0L270.419 0V87.4619Z" fill="#101010"/>
<path d="M270.419 87.4619V88.4619H271.419V87.4619H270.419ZM264.172 87.4619V86.4619H263.172V87.4619H264.172ZM264.172 222.226V223.226H265.172V222.226H264.172ZM197.236 222.226V221.226H196.236V222.226H197.236ZM197.236 249V250H198.236V249H197.236ZM8.9248 249H7.9248V250H8.9248V249ZM8.9248 161.538V160.538H7.9248V161.538H8.9248ZM41.9463 161.538V162.538H42.9463V161.538H41.9463ZM41.9463 106.204H42.9463V105.204H41.9463V106.204ZM0 106.204H-1V107.204H0L0 106.204ZM0 18.7422L0 17.7422H-1L-1 18.7422H0ZM82.1074 18.7422V19.7422H83.1074V18.7422H82.1074ZM82.1074 0V-1H81.1074V0L82.1074 0ZM270.419 0L271.419 0V-1H270.419V0ZM270.419 87.4619V86.4619H264.172V87.4619V88.4619H270.419V87.4619ZM264.172 87.4619H263.172V222.226H264.172H265.172V87.4619H264.172ZM264.172 222.226V221.226H197.236V222.226V223.226H264.172V222.226ZM197.236 222.226H196.236V249H197.236H198.236V222.226H197.236ZM197.236 249V248H8.9248V249V250H197.236V249ZM8.9248 249H9.9248L9.9248 161.538H8.9248H7.9248L7.9248 249H8.9248ZM8.9248 161.538V162.538H41.9463V161.538V160.538H8.9248V161.538ZM41.9463 161.538H42.9463L42.9463 106.204H41.9463H40.9463L40.9463 161.538H41.9463ZM41.9463 106.204V105.204H0L0 106.204L0 107.204H41.9463V106.204ZM0 106.204H1L1 18.7422H0H-1L-1 106.204H0ZM0 18.7422L0 19.7422L82.1074 19.7422V18.7422V17.7422L0 17.7422L0 18.7422ZM82.1074 18.7422H83.1074V0L82.1074 0L81.1074 0V18.7422H82.1074ZM82.1074 0V1L270.419 1V0V-1L82.1074 -1V0ZM270.419 0L269.419 0V87.4619H270.419H271.419V0L270.419 0Z" fill="white" mask="url(#path-1-inside-1_990_106)"/>
</svg>
